# xmcd
#
# Track frame offsets:
#	150
#	12922
#	26585
#	40025
#	58480
#	75487
#	91240
#	104374
#	115585
#	125097
#	139624
#	150557
#	167118
#	181116
#	194306
#	209362
#	217564
#	234181
#
# Disc length: 3250 seconds
#
# Revision: 1
# Processed by: cddbd v1.5.2PL0 Copyright (c) Steve Scherf et al.
# Submitted via: audiograbber 1.83.01
#
DISCID=e00cb012
DTITLE=The Sons Of The Desert - Shake It And Breake It
DYEAR=1999
DGENRE=Blues
TTITLE0=I'm Gonna Get It
TTITLE1=Steady Roll Blues
TTITLE2=Greasy Greens
TTITLE3=I'm Gonna Move
TTITLE4=Guitar Swing
TTITLE5=You Shouldn't Do That
TTITLE6=Big Time Woman
TTITLE7=Do Your Duty
TTITLE8=Maikai' No Kauai'
TTITLE9=Maui Chimes
TTITLE10=Na'ali
TTITLE11=On The Beach Of Waikiki
TTITLE12=I Wish I Could Shimmy Like My Sister Kate
TTITLE13=Women Be Wise
TTITLE14=Shake It And Breake It
TTITLE15=Bumble Bee
TTITLE16=Woman Lover
TTITLE17=Jersey Bull Blues
EXTD=
EXTT0=
EXTT1=
EXTT2=
EXTT3=
EXTT4=
EXTT5=
EXTT6=
EXTT7=
EXTT8=
EXTT9=
EXTT10=
EXTT11=
EXTT12=
EXTT13=
EXTT14=
EXTT15=
EXTT16=
EXTT17=
PLAYORDER=
